<svg preserveAspectRatio="none" width="100%" height="100%" overflow="visible" style="display: block;" viewBox="0 0 14.7643 9.47935" fill="none" xmlns="http://www.w3.org/2000/svg">
<path id="logo" d="M13.5576 2.76091L14.7643 1.44805H12.0883C10.7486 0.532953 9.13073 0 7.38101 0C5.6335 0 4.02012 0.534102 2.68268 1.44805H0L1.20671 2.76091C0.467053 3.43576 0.0033638 4.40785 0.0033638 5.48718C0.0033638 7.52405 1.65478 9.17544 3.69165 9.17544C4.65926 9.17544 5.5408 8.80226 6.19891 8.1922L7.38104 9.47935L8.56316 8.19332C9.22127 8.80338 10.1017 9.17544 11.0693 9.17544C13.1062 9.17544 14.7598 7.52405 14.7598 5.48718C14.7609 4.40672 14.2972 3.43467 13.5576 2.76091ZM3.69275 7.98325C2.31396 7.98325 1.19667 6.86597 1.19667 5.48718C1.19667 4.10839 2.31399 2.99108 3.69275 2.99108C5.07151 2.99108 6.18882 4.10839 6.18882 5.48718C6.18882 6.86597 5.07151 7.98325 3.69275 7.98325ZM7.38213 5.41455C7.38213 3.77207 6.18773 2.36203 4.61118 1.75979C5.46369 1.40334 6.39889 1.20558 7.38101 1.20558C8.36313 1.20558 9.29942 1.40334 10.152 1.75979C8.57656 2.36315 7.38213 3.7721 7.38213 5.41455ZM11.0704 7.98325C9.69163 7.98325 8.57432 6.86597 8.57432 5.48718C8.57432 4.10839 9.69163 2.99108 11.0704 2.99108C12.4492 2.99108 13.5665 4.10839 13.5665 5.48718C13.5665 6.86597 12.4492 7.98325 11.0704 7.98325ZM11.0704 4.17765C10.3475 4.17765 9.76202 4.76314 9.76202 5.48606C9.76202 6.20895 10.3475 6.79443 11.0704 6.79443C11.7933 6.79443 12.3788 6.20895 12.3788 5.48606C12.3788 4.76426 11.7933 4.17765 11.0704 4.17765ZM5.00112 5.48718C5.00112 6.21007 4.41564 6.79555 3.69275 6.79555C2.96986 6.79555 2.38437 6.21007 2.38437 5.48718C2.38437 4.76426 2.96986 4.17878 3.69275 4.17878C4.41564 4.17765 5.00112 4.76426 5.00112 5.48718Z" fill="var(--fill-0, black)"/>
</svg>
